<svg width="37" height="36" viewBox="0 0 37 36" fill="none" xmlns="http://www.w3.org/2000/svg">
<path opacity="0.4" d="M30.9652 10.5V22.5H9.74021C7.38521 22.5 5.46521 24.42 5.46521 26.775V10.5C5.46521 4.5 6.96521 3 12.9652 3H23.4652C29.4652 3 30.9652 4.5 30.9652 10.5Z" fill="#D4D8D6"/>
<path d="M30.9652 22.5V27.75C30.9652 30.645 28.6102 33 25.7152 33H10.7152C7.82021 33 5.46521 30.645 5.46521 27.75V26.775C5.46521 24.42 7.38521 22.5 9.74021 22.5H30.9652Z" fill="#D4D8D6"/>
<path d="M24.2152 11.625H12.2152C11.6002 11.625 11.0902 11.115 11.0902 10.5C11.0902 9.885 11.6002 9.375 12.2152 9.375H24.2152C24.8302 9.375 25.3402 9.885 25.3402 10.5C25.3402 11.115 24.8302 11.625 24.2152 11.625Z" fill="#D4D8D6"/>
<path d="M19.7152 16.875H12.2152C11.6002 16.875 11.0902 16.365 11.0902 15.75C11.0902 15.135 11.6002 14.625 12.2152 14.625H19.7152C20.3302 14.625 20.8402 15.135 20.8402 15.75C20.8402 16.365 20.3302 16.875 19.7152 16.875Z" fill="#D4D8D6"/>
</svg>
