<svg width="25" height="24" viewBox="0 0 25 24" fill="none" xmlns="http://www.w3.org/2000/svg">
<path opacity="0.4" d="M17.9704 8.81001C19.6051 8.81001 20.9304 7.48478 20.9304 5.85001C20.9304 4.21525 19.6051 2.89001 17.9704 2.89001C16.3356 2.89001 15.0104 4.21525 15.0104 5.85001C15.0104 7.48478 16.3356 8.81001 17.9704 8.81001Z" fill="#292D32"/>
<path d="M6.89042 8.81001C8.52518 8.81001 9.85042 7.48478 9.85042 5.85001C9.85042 4.21525 8.52518 2.89001 6.89042 2.89001C5.25566 2.89001 3.93042 4.21525 3.93042 5.85001C3.93042 7.48478 5.25566 8.81001 6.89042 8.81001Z" fill="#292D32"/>
<path d="M17.9704 21.1099C19.6051 21.1099 20.9304 19.7847 20.9304 18.1499C20.9304 16.5152 19.6051 15.1899 17.9704 15.1899C16.3356 15.1899 15.0104 16.5152 15.0104 18.1499C15.0104 19.7847 16.3356 21.1099 17.9704 21.1099Z" fill="#292D32"/>
<path opacity="0.4" d="M6.89042 21.1099C8.52518 21.1099 9.85042 19.7847 9.85042 18.1499C9.85042 16.5152 8.52518 15.1899 6.89042 15.1899C5.25566 15.1899 3.93042 16.5152 3.93042 18.1499C3.93042 19.7847 5.25566 21.1099 6.89042 21.1099Z" fill="#292D32"/>
</svg>
